<?xml version="1.0" standalone="no"?>
<!DOCTYPE svg PUBLIC "-//W3C//DTD SVG 20010904//EN"
 "http://www.w3.org/TR/2001/REC-SVG-20010904/DTD/svg10.dtd">
<svg version="1.0" xmlns="http://www.w3.org/2000/svg"
 width="300.000000pt" height="300.000000pt" viewBox="0 0 300.000000 300.000000"
 preserveAspectRatio="xMidYMid meet">
<metadata>
Created by potrace 1.10, written by Peter Selinger 2001-2011
</metadata>
<g transform="translate(0.000000,300.000000) scale(0.100000,-0.100000)"
fill="#000000" stroke="none">
<path d="M1226 2971 c-3 -4 -27 -11 -53 -14 -26 -3 -49 -10 -51 -16 -2 -6 -18
-11 -37 -11 -18 0 -38 -7 -45 -15 -7 -8 -27 -15 -46 -15 -18 0 -36 -4 -39 -10
-3 -5 -14 -10 -24 -10 -10 0 -24 -7 -31 -15 -7 -8 -21 -15 -32 -15 -10 0 -21
-7 -24 -15 -4 -8 -17 -15 -30 -15 -13 0 -24 -4 -24 -10 0 -5 -9 -10 -20 -10
-11 0 -23 -7 -26 -15 -4 -8 -12 -15 -20 -15 -8 0 -14 -4 -14 -9 0 -5 -10 -13
-22 -17 -12 -3 -33 -17 -47 -30 -14 -13 -34 -27 -43 -30 -10 -3 -18 -10 -18
-15 0 -5 -6 -9 -12 -9 -16 -1 -228 -213 -228 -229 0 -6 -4 -11 -9 -11 -5 0
-20 -17 -32 -37 -13 -21 -25 -40 -28 -43 -10 -9 -31 -45 -37 -62 -4 -10 -10
-18 -14 -18 -10 0 -40 -57 -40 -75 0 -7 -7 -18 -15 -25 -8 -7 -15 -19 -15 -27
0 -8 -7 -21 -15 -29 -8 -9 -15 -24 -15 -35 0 -10 -4 -19 -10 -19 -5 0 -10 -17
-10 -39 0 -22 -6 -44 -15 -51 -8 -7 -15 -27 -15 -44 0 -18 -5 -37 -12 -44 -23
-23 -31 -120 -31 -362 0 -238 11 -361 32 -368 6 -2 11 -18 11 -37 0 -18 7 -38
15 -45 9 -7 15 -29 15 -51 0 -22 5 -39 10 -39 6 0 10 -9 10 -19 0 -11 7 -26
15 -35 8 -8 15 -21 15 -29 0 -8 7 -20 15 -27 8 -7 15 -18 15 -25 0 -16 30 -75
38 -75 4 0 16 -18 26 -40 11 -22 22 -40 26 -40 4 0 11 -10 17 -22 26 -57 244
-276 306 -307 15 -8 39 -27 55 -42 15 -16 33 -29 40 -29 7 0 30 -11 52 -25 22
-14 44 -25 49 -25 5 0 14 -7 21 -15 7 -8 23 -15 36 -15 13 0 24 -4 24 -9 0 -5
13 -12 30 -16 16 -4 30 -11 30 -16 0 -5 10 -9 23 -9 12 0 31 -7 41 -15 11 -8
32 -15 47 -15 15 0 40 -7 55 -15 16 -8 41 -15 56 -15 15 0 30 -5 33 -10 3 -6
30 -10 58 -10 29 0 74 -7 101 -15 64 -20 228 -20 292 0 27 8 72 15 101 15 28
0 54 4 57 9 3 4 28 11 56 15 27 4 50 11 50 16 0 6 17 10 39 10 22 0 44 6 51
15 7 8 21 15 31 15 10 0 39 11 65 25 26 14 55 25 65 25 10 0 20 4 24 9 3 6 26
20 50 32 25 12 45 26 45 31 0 4 7 8 15 8 15 0 140 88 199 140 56 49 121 116
156 160 19 25 45 56 57 70 13 14 23 29 23 33 0 5 6 15 13 22 25 29 54 72 63
95 12 31 39 85 45 90 3 3 9 17 13 32 3 16 11 28 16 28 6 0 10 13 10 29 0 16 7
42 15 57 8 16 15 37 15 47 0 9 5 17 10 17 6 0 10 19 10 43 0 23 7 51 15 61 22
29 21 569 0 606 -8 14 -14 42 -15 62 0 20 -4 40 -10 43 -5 3 -10 14 -10 23 0
9 -7 30 -15 46 -8 15 -15 41 -15 57 0 16 -4 29 -8 29 -5 0 -19 25 -33 55 -13
30 -27 55 -31 55 -5 0 -8 9 -8 20 0 12 -5 26 -10 33 -41 48 -50 62 -50 74 0 7
-4 13 -10 13 -5 0 -10 5 -10 11 0 6 -15 30 -32 53 -18 22 -37 47 -43 54 -25
33 -184 190 -225 222 -25 19 -50 39 -57 45 -7 5 -19 16 -27 23 -8 6 -18 12
-22 12 -3 0 -26 14 -51 30 -24 17 -48 30 -54 30 -5 0 -9 5 -9 10 0 6 -11 10
-24 10 -14 0 -27 4 -30 9 -8 13 -84 51 -101 51 -8 0 -15 5 -15 10 0 6 -15 10
-34 10 -18 0 -39 7 -46 15 -7 8 -27 15 -45 15 -19 0 -35 5 -37 11 -2 6 -25 13
-51 16 -26 3 -50 10 -53 14 -3 5 -124 9 -269 9 -145 0 -266 -4 -269 -9z m516
-37 c160 -34 340 -104 481 -188 124 -73 184 -121 297 -235 112 -113 192 -224
269 -375 45 -87 54 -110 87 -221 44 -147 46 -160 50 -380 3 -189 1 -232 -16
-305 -61 -272 -181 -503 -357 -685 -200 -207 -427 -336 -733 -417 -121 -32
-131 -32 -325 -32 -158 0 -215 3 -270 17 -38 10 -90 23 -115 28 -63 15 -252
94 -337 140 -143 79 -313 220 -408 339 -84 106 -181 270 -215 362 -29 80 -63
200 -81 283 -23 109 -26 351 -5 465 43 238 150 480 292 660 209 264 502 448
854 537 132 33 395 37 532 7z"/>
<path d="M1300 2848 c-14 -5 -43 -13 -65 -18 -168 -34 -375 -127 -515 -231
-99 -73 -224 -196 -294 -288 -108 -141 -208 -354 -239 -511 -9 -41 -20 -99
-26 -128 -16 -77 -14 -265 4 -367 29 -167 82 -322 146 -430 10 -16 28 -48 39
-70 33 -61 144 -200 160 -200 18 0 14 34 -4 50 -54 45 -226 333 -226 377 0 9
-7 21 -15 28 -8 7 -15 25 -15 41 0 15 -4 30 -9 33 -4 3 -11 26 -15 52 -3 26
-11 53 -18 61 -17 21 -17 475 0 495 6 8 15 36 18 62 4 26 11 49 15 52 5 3 9
18 9 33 0 15 7 36 15 47 8 10 15 29 15 42 0 12 4 22 9 22 5 0 13 10 16 23 12
40 37 91 61 124 13 17 24 35 24 39 0 19 115 160 195 239 96 94 139 130 215
180 68 44 83 53 110 65 54 24 116 53 142 66 14 8 33 14 42 14 9 0 24 4 34 9
23 12 96 31 157 41 175 30 213 32 291 20 44 -7 99 -14 124 -17 25 -2 59 -11
77 -19 17 -8 42 -14 56 -14 14 0 29 -4 32 -10 3 -5 15 -10 27 -10 11 0 32 -6
46 -14 25 -13 118 -56 152 -71 23 -9 138 -83 150 -95 3 -3 25 -21 50 -40 60
-47 178 -164 220 -220 19 -25 37 -47 41 -50 17 -13 119 -193 119 -210 0 -11 5
-20 10 -20 6 0 10 -5 10 -11 0 -12 22 -66 46 -112 8 -16 14 -42 14 -58 0 -17
5 -40 11 -51 21 -39 32 -142 32 -298 0 -162 -11 -260 -31 -297 -7 -12 -12 -35
-12 -51 0 -16 -7 -43 -15 -58 -8 -16 -15 -37 -15 -46 0 -10 -4 -18 -10 -18 -5
0 -10 -8 -10 -19 0 -10 -7 -24 -15 -31 -8 -7 -15 -21 -15 -32 0 -10 -17 -45
-37 -76 -20 -31 -44 -69 -53 -84 -8 -15 -26 -40 -40 -55 -14 -15 -34 -45 -45
-67 -11 -21 -26 -40 -32 -43 -7 -3 -10 -9 -7 -14 13 -22 104 78 186 207 72
113 144 305 178 472 16 82 13 343 -6 447 -59 329 -218 595 -493 824 -51 42
-232 161 -245 161 -3 0 -33 13 -68 29 -35 16 -79 34 -98 40 -201 62 -265 72
-435 70 -83 -1 -162 -6 -175 -11z"/>
<path d="M1374 2671 c-102 -23 -168 -60 -172 -95 -7 -55 33 -70 97 -37 20 10
56 25 81 32 55 17 226 17 242 1 7 -7 19 -12 29 -12 9 0 37 -11 63 -25 52 -28
73 -30 97 -12 44 34 24 65 -71 109 -124 58 -233 70 -366 39z m321 -67 l30 -13
-30 6 c-16 3 -41 12 -55 20 l-25 14 25 -7 c14 -4 39 -12 55 -20z"/>
<path d="M1031 2468 c-28 -35 -50 -71 -51 -80 0 -9 -6 -29 -14 -45 -34 -69
-50 -203 -26 -218 6 -3 10 -17 10 -31 0 -14 10 -46 21 -72 l21 -46 -31 -28
c-42 -38 -59 -108 -41 -171 14 -52 80 -127 111 -127 34 0 59 -19 59 -45 0 -14
14 -47 30 -73 23 -39 29 -56 24 -81 -4 -17 -11 -34 -15 -37 -18 -11 -10 -118
11 -149 17 -26 20 -27 22 -10 5 61 7 86 11 140 2 33 5 76 5 95 l2 35 54 -60
c29 -33 78 -74 107 -90 50 -28 62 -30 154 -30 91 0 104 3 145 27 49 29 112 86
149 136 27 36 36 37 23 2 -5 -14 -4 -55 4 -103 7 -45 10 -85 7 -90 -3 -4 2
-28 11 -51 17 -44 54 -69 115 -81 74 -14 194 -75 280 -143 53 -42 75 -50 86
-32 3 6 -1 10 -9 10 -9 0 -16 5 -16 12 0 17 -82 90 -126 112 -22 10 -46 22
-54 27 -8 5 -22 12 -30 15 -8 3 -27 12 -42 20 -14 8 -38 14 -51 14 -14 0 -29
5 -32 10 -3 6 -26 10 -51 10 l-44 0 0 91 c0 66 -4 98 -16 118 -16 27 -15 29
15 71 17 24 31 55 31 70 0 31 28 60 58 60 46 0 132 109 132 167 0 42 -24 98
-56 130 -33 32 -34 36 -20 61 58 112 60 264 3 381 -9 19 -9 25 1 28 6 3 12 11
12 19 0 8 7 17 15 20 17 7 20 59 4 70 -11 6 -73 -21 -97 -43 -7 -7 -23 -13
-36 -13 -12 0 -26 -4 -32 -9 -5 -6 -34 -11 -64 -13 -48 -3 -55 -6 -58 -25 -3
-18 2 -23 20 -24 45 -2 93 3 98 10 3 4 26 15 53 24 l47 16 0 -40 c0 -22 5 -50
11 -61 17 -32 19 -214 3 -276 -19 -74 -17 -101 11 -151 30 -52 34 -91 6 -47
-24 37 -57 55 -97 56 l-31 0 -7 78 c-7 86 -27 153 -55 183 -27 29 -81 35 -122
13 -26 -14 -57 -18 -134 -18 -90 0 -106 2 -155 28 -30 15 -69 38 -87 52 -17
13 -44 24 -58 24 -40 0 -89 -59 -111 -133 -11 -39 -19 -54 -21 -41 -8 47 101
234 137 234 6 0 36 -19 67 -43 95 -71 115 -77 260 -74 92 1 135 6 153 17 92
54 120 73 120 81 0 12 -47 11 -55 -1 -4 -6 -35 -24 -70 -40 -59 -27 -73 -30
-170 -30 -58 0 -105 4 -105 9 0 5 -12 12 -27 16 -42 10 -124 75 -135 107 -6
15 -17 28 -25 28 -26 0 -121 -110 -153 -175 -23 -46 -30 -76 -30 -118 0 -53
11 -74 23 -44 8 18 8 -40 1 -100 -7 -52 -7 -53 -40 -53 -23 0 -44 -10 -69 -31
-20 -18 -38 -30 -40 -28 -2 3 9 25 24 49 30 48 31 74 10 153 -14 52 -19 175
-9 201 6 14 9 -13 9 -76 1 -53 4 -104 7 -113 13 -32 24 8 24 84 0 110 27 185
93 255 42 46 43 48 21 81 -28 42 -57 33 -113 -37z m255 -227 c27 -45 183 -111
263 -111 40 0 136 25 173 45 14 8 36 15 47 15 17 0 21 -6 21 -30 0 -16 4 -30
8 -30 12 0 35 -145 28 -174 -3 -13 -2 -36 3 -49 10 -25 47 -42 57 -26 9 15 56
10 76 -8 22 -20 24 -66 3 -87 -8 -8 -15 -19 -15 -23 0 -10 -69 -39 -83 -35
-29 9 -47 -11 -53 -59 -4 -27 -10 -49 -14 -49 -4 0 -11 -12 -15 -27 -13 -54
-108 -159 -167 -185 -15 -7 -28 -16 -28 -20 0 -12 -178 -10 -185 2 -3 6 -15
10 -26 10 -11 0 -22 7 -25 15 -4 8 -12 15 -19 15 -21 0 -103 96 -126 147 -35
77 -38 86 -41 118 -3 27 -7 30 -38 31 -19 1 -40 2 -47 3 -22 2 -83 74 -83 98
0 12 9 32 21 44 17 17 28 20 68 14 34 -5 50 -3 58 7 6 7 13 59 15 115 2 62 8
107 16 115 7 7 12 21 12 33 0 11 7 29 15 39 8 11 15 27 15 36 0 19 19 40 36
40 7 0 21 -13 30 -29z m-207 -547 c17 -4 35 -11 39 -18 9 -11 23 -56 18 -56
-2 0 -22 18 -45 40 -23 22 -48 40 -55 40 -12 0 -66 60 -66 73 0 3 17 -13 39
-34 21 -22 53 -42 70 -45z m821 -24 c-29 -23 -43 -25 -38 -7 5 14 50 38 58 31
2 -3 -6 -14 -20 -24z"/>
<path d="M1865 2294 c-30 -32 -31 -68 -6 -143 l18 -55 6 33 c7 35 0 81 -13 81
-4 0 -10 10 -14 22 -4 17 2 29 21 45 14 13 30 23 35 23 5 0 6 5 3 10 -10 16
-24 12 -50 -16z"/>
<path d="M1950 2197 c0 -70 4 -106 10 -102 6 3 10 16 10 28 0 12 4 29 9 37 6
8 7 19 3 24 -3 6 -5 26 -3 46 1 19 -5 44 -13 55 -14 18 -15 11 -16 -88z"/>
<path d="M438 1976 c-16 -12 -18 -34 -18 -209 0 -245 7 -267 103 -317 l37 -20
0 -385 c0 -212 4 -385 8 -385 5 0 14 -10 19 -22 7 -17 11 31 15 177 2 111 8
206 12 213 6 10 11 10 22 1 17 -14 18 8 15 243 l-2 158 38 17 c44 21 62 38 86
82 14 28 17 61 17 230 0 185 -1 199 -20 216 -16 15 -22 15 -35 5 -12 -10 -15
-44 -15 -193 0 -171 -1 -183 -22 -213 -25 -36 -43 -44 -102 -44 -32 0 -44 6
-72 37 l-34 37 0 181 c0 202 -7 226 -52 191z m204 -516 c-15 -21 -29 -39 -32
-39 -3 0 -17 15 -32 33 l-28 33 52 2 c28 0 53 3 56 6 15 15 9 0 -16 -35z"/>
<path d="M542 1978 c-8 -8 -12 -59 -12 -168 0 -144 2 -158 20 -175 29 -26 31
-13 28 180 -3 166 -8 191 -36 163z"/>
<path d="M636 1983 c-9 -9 -7 -351 2 -357 4 -2 14 -1 21 3 10 6 13 50 15 174
1 144 -1 167 -15 176 -9 5 -20 7 -23 4z"/>
<path d="M2365 1952 c-17 -9 -41 -27 -55 -40 -13 -12 -26 -22 -30 -22 -3 0
-25 -29 -48 -64 -47 -72 -65 -132 -65 -221 0 -100 19 -155 76 -223 15 -18 27
-37 27 -42 0 -6 7 -10 15 -10 8 0 22 -8 31 -19 13 -15 16 -40 15 -129 -1 -68
2 -113 8 -117 6 -3 11 -15 11 -26 0 -11 4 -18 9 -15 12 8 25 195 17 243 -5 28
-22 55 -61 96 -50 54 -96 131 -94 159 0 7 5 3 11 -9 6 -13 15 -23 20 -23 14 0
9 75 -8 99 -12 17 -14 25 -5 31 7 4 15 32 18 63 3 32 10 57 14 57 5 0 9 12 9
26 0 14 -4 23 -10 19 -5 -3 -10 -1 -10 5 0 19 92 110 111 110 18 0 19 -21 20
-557 0 -307 0 -583 -1 -613 -1 -54 15 -119 26 -107 9 9 12 199 14 802 1 512 0
540 -17 542 -10 1 -32 -5 -48 -15z"/>
<path d="M2325 1721 c-4 -17 -11 -31 -16 -31 -5 0 -9 -34 -9 -76 0 -55 3 -75
12 -72 7 3 14 24 16 49 1 24 7 66 13 93 6 30 6 53 0 59 -5 5 -12 -3 -16 -22z"/>
<path d="M1225 1393 c11 -2 29 -16 39 -31 19 -29 68 -62 91 -62 7 0 26 -7 41
-15 41 -21 192 -21 200 0 4 8 16 15 28 15 37 0 100 51 102 82 1 17 -2 16 -30
-5 -55 -41 -112 -60 -178 -60 -89 0 -155 19 -220 64 -14 11 -41 18 -60 18 -19
-1 -24 -3 -13 -6z"/>
<path d="M1192 1358 c-19 -34 -2 -92 43 -151 44 -57 79 -83 151 -107 139 -48
289 -2 360 109 38 61 64 135 53 152 -6 10 -9 6 -9 -14 0 -16 -5 -26 -12 -25
-7 2 -14 -8 -16 -21 -2 -13 -8 -29 -12 -35 -42 -54 -87 -98 -113 -111 -28 -14
-105 -35 -132 -36 -27 -1 -124 21 -151 35 -62 32 -128 122 -143 198 l-6 30
-13 -24z"/>
<path d="M1035 1230 c-3 -5 -15 -10 -27 -10 -35 0 -181 -69 -244 -115 -63 -45
-99 -105 -65 -105 5 0 28 17 52 38 61 54 178 115 281 147 110 34 132 55 60 55
-28 0 -54 -4 -57 -10z"/>
<path d="M1203 1173 c9 -2 17 -10 17 -17 0 -42 123 -126 183 -126 40 0 48 -13
40 -63 -4 -27 0 -40 16 -56 19 -19 22 -19 28 -5 5 13 9 12 29 -9 47 -51 102
-47 179 11 85 64 158 185 140 229 -6 16 -9 14 -17 -9 -5 -16 -13 -28 -18 -28
-4 0 -11 -11 -14 -25 -4 -14 -11 -25 -16 -25 -6 0 -10 -6 -10 -13 0 -20 -99
-117 -120 -117 -6 0 -18 -7 -27 -16 -18 -18 -79 -15 -77 4 1 6 2 37 3 67 l1
55 41 0 c25 0 58 10 87 26 53 29 69 45 96 94 17 30 17 33 3 21 -9 -7 -17 -10
-17 -6 0 4 -16 -7 -35 -24 -20 -17 -42 -31 -50 -31 -8 0 -15 -3 -15 -8 0 -4
-27 -18 -60 -31 -33 -13 -60 -27 -60 -30 0 -3 -7 -14 -14 -24 -12 -16 -17 -16
-35 -5 -12 7 -21 18 -21 24 0 6 -27 21 -60 33 -33 12 -80 37 -104 55 -53 41
-80 56 -98 55 -7 -1 -5 -3 5 -6z"/>
<path d="M985 1145 c-33 -14 -64 -25 -69 -25 -4 0 -36 -16 -70 -37 -81 -48
-155 -124 -191 -198 -29 -59 -30 -62 -28 -217 l1 -156 29 -32 c45 -51 188
-140 307 -192 60 -26 113 -45 118 -42 4 3 8 1 8 -5 0 -6 17 -13 38 -16 20 -4
51 -10 67 -15 46 -12 178 -34 198 -33 9 0 25 1 35 2 12 1 9 6 -13 19 -18 11
-59 21 -99 24 -37 3 -73 11 -79 17 -6 6 -33 11 -59 11 -26 0 -48 4 -48 10 0 5
-18 13 -40 16 -22 4 -40 10 -40 15 0 5 -7 9 -16 9 -9 0 -28 6 -42 14 -15 7
-47 23 -72 34 -82 39 -184 102 -210 131 -3 4 -14 11 -25 17 -18 10 -20 23 -23
159 -1 91 2 153 8 159 5 5 10 18 10 28 0 19 80 137 93 138 4 0 18 9 30 21 29
27 115 76 150 84 15 4 27 11 27 16 0 5 9 9 19 9 11 0 26 7 35 15 8 8 24 15 35
15 18 0 21 -6 21 -44 0 -24 3 -46 8 -48 4 -1 17 -24 30 -50 47 -97 197 -208
280 -208 l32 0 2 -272 c0 -150 0 -283 -1 -295 -1 -13 3 -23 9 -23 5 0 10 7 10
16 0 8 4 13 9 10 12 -8 21 17 22 62 2 34 2 34 6 7 5 -41 23 -85 35 -85 5 0 8
6 7 13 -1 6 -1 137 0 290 l1 277 36 0 c20 0 48 6 62 14 15 7 44 22 65 32 82
41 187 185 187 258 0 39 -17 57 -26 29 -20 -60 -71 -148 -109 -187 -38 -40
-174 -116 -206 -116 -5 0 -19 -15 -30 -34 l-20 -34 -39 39 c-21 21 -43 39 -49
39 -6 0 -39 13 -74 29 -70 32 -152 112 -181 178 -36 79 -41 88 -56 104 -28 28
-53 29 -115 4z"/>
<path d="M1910 1157 l-25 -11 30 -4 c16 -2 32 -7 35 -11 3 -4 28 -18 55 -31
137 -62 167 -82 230 -146 78 -81 84 -100 85 -272 1 -81 1 -155 0 -164 0 -9
-10 -20 -22 -23 -11 -4 -31 -17 -42 -29 -12 -13 -28 -26 -36 -29 -8 -4 -28
-16 -45 -27 -16 -11 -37 -23 -45 -27 -8 -3 -32 -17 -52 -30 -21 -13 -45 -23
-54 -23 -8 0 -22 -7 -30 -15 -9 -8 -24 -15 -34 -15 -10 0 -22 -4 -25 -10 -3
-5 -14 -10 -23 -10 -9 0 -30 -7 -46 -15 -15 -8 -43 -15 -61 -15 -18 0 -49 -7
-68 -15 -20 -8 -61 -15 -92 -15 -30 0 -55 -4 -55 -8 0 -5 -10 -14 -22 -20 -44
-21 82 -13 193 12 142 32 205 55 344 122 104 50 229 147 245 189 14 36 15 272
1 320 -12 45 -54 117 -92 155 -50 53 -110 92 -208 135 -112 50 -106 48 -141
32z"/>
<path d="M1157 1100 c6 -52 20 -76 77 -138 78 -85 167 -122 211 -88 19 15 19
15 -12 16 -79 0 -225 127 -247 213 -3 15 -11 25 -15 22 -5 -3 -12 1 -15 7 -3
7 -2 -7 1 -32z"/>
</g>
</svg>
